<svg width="31" height="30" viewBox="0 0 31 30" fill="none" xmlns="http://www.w3.org/2000/svg">
<g id="icon/prime:credit-card">
<path id="Vector" d="M24.25 6.5625H6.75C6.17085 6.56578 5.61636 6.7973 5.20683 7.20683C4.7973 7.61636 4.56578 8.17085 4.5625 8.75V21.25C4.56578 21.8291 4.7973 22.3836 5.20683 22.7932C5.61636 23.2027 6.17085 23.4342 6.75 23.4375H24.25C24.8291 23.4342 25.3836 23.2027 25.7932 22.7932C26.2027 22.3836 26.4342 21.8291 26.4375 21.25V8.75C26.4342 8.17085 26.2027 7.61636 25.7932 7.20683C25.3836 6.7973 24.8291 6.56578 24.25 6.5625ZM6.75 8.4375H24.25C24.3329 8.4375 24.4124 8.47042 24.471 8.52903C24.5296 8.58763 24.5625 8.66712 24.5625 8.75V11.5625H6.4375V8.75C6.4375 8.66712 6.47042 8.58763 6.52903 8.52903C6.58763 8.47042 6.66712 8.4375 6.75 8.4375ZM24.25 21.5625H6.75C6.66712 21.5625 6.58763 21.5296 6.52903 21.471C6.47042 21.4124 6.4375 21.3329 6.4375 21.25V13.4375H24.5625V21.25C24.5625 21.3329 24.5296 21.4124 24.471 21.471C24.4124 21.5296 24.3329 21.5625 24.25 21.5625Z" fill="#111111"/>
<path id="Vector_2" d="M11.75 16.25H9.25C8.91848 16.25 8.60054 16.3817 8.36612 16.6161C8.1317 16.8505 8 17.1685 8 17.5C8 17.8315 8.1317 18.1495 8.36612 18.3839C8.60054 18.6183 8.91848 18.75 9.25 18.75H11.75C12.0815 18.75 12.3995 18.6183 12.6339 18.3839C12.8683 18.1495 13 17.8315 13 17.5C13 17.1685 12.8683 16.8505 12.6339 16.6161C12.3995 16.3817 12.0815 16.25 11.75 16.25Z" fill="#111111"/>
</g>
</svg>
