<svg width="25" height="24" viewBox="0 0 25 24" fill="none" xmlns="http://www.w3.org/2000/svg">
<g id="icon/calendar">
<path id="Vector" d="M9.5 2C9.76522 2 10.0196 2.10536 10.2071 2.29289C10.3946 2.48043 10.5 2.73478 10.5 3V4H14.5V3C14.5 2.73478 14.6054 2.48043 14.7929 2.29289C14.9804 2.10536 15.2348 2 15.5 2C15.7652 2 16.0196 2.10536 16.2071 2.29289C16.3946 2.48043 16.5 2.73478 16.5 3V4H19.5C20.0304 4 20.5391 4.21071 20.9142 4.58579C21.2893 4.96086 21.5 5.46957 21.5 6V19C21.5 19.5304 21.2893 20.0391 20.9142 20.4142C20.5391 20.7893 20.0304 21 19.5 21H5.5C4.96957 21 4.46086 20.7893 4.08579 20.4142C3.71071 20.0391 3.5 19.5304 3.5 19V6C3.5 5.46957 3.71071 4.96086 4.08579 4.58579C4.46086 4.21071 4.96957 4 5.5 4H8.5V3C8.5 2.73478 8.60536 2.48043 8.79289 2.29289C8.98043 2.10536 9.23478 2 9.5 2ZM8.5 6H5.5V9H19.5V6H16.5V7C16.5 7.26522 16.3946 7.51957 16.2071 7.70711C16.0196 7.89464 15.7652 8 15.5 8C15.2348 8 14.9804 7.89464 14.7929 7.70711C14.6054 7.51957 14.5 7.26522 14.5 7V6H10.5V7C10.5 7.26522 10.3946 7.51957 10.2071 7.70711C10.0196 7.89464 9.76522 8 9.5 8C9.23478 8 8.98043 7.89464 8.79289 7.70711C8.60536 7.51957 8.5 7.26522 8.5 7V6ZM19.5 11H5.5V19H19.5V11Z" fill="#D5D5D5"/>
</g>
</svg>
