<svg width="30" height="30" viewBox="0 0 30 30" fill="none" xmlns="http://www.w3.org/2000/svg">
<path d="M15.5625 20.6875V21.8125H14.4375V20.6875H15.5625Z" stroke="#FBFBFB" stroke-width="2"/>
<path fill-rule="evenodd" clip-rule="evenodd" d="M15 10C13.5062 10 12.5 11.3575 12.5 12.5H10C10 10.2475 11.87 7.5 15 7.5C18.12 7.5 20 10.1775 20 12.5C20 14.4725 18.615 15.4725 17.7575 16.0913L17.6125 16.1962C16.6688 16.8862 16.25 17.2788 16.25 18.125H13.75C13.75 15.9225 15.2012 14.8625 16.1337 14.1813L16.1375 14.1788C17.1775 13.4175 17.5 13.1287 17.5 12.5C17.5 11.3125 16.505 10 15 10Z" fill="#FBFBFB"/>
</svg>
